# xmcd CD database file
#
# Track frame offsets:
#	150
#	10499
#	21683
#	30950
#	39226
#	48664
#	59508
#	67899
#	75648
#	85714
#	97594
#
# Disc length: 1434 seconds
#
# Revision: 0
# Processed by: cddbd v1.5.2PL0 Copyright (c) Steve Scherf et al.
# Submitted via: CDex 1.51
#
DISCID=7c05980b
DTITLE=Johnny Cash - The King of Country Music
DYEAR=1971
DGENRE=Country
TTITLE0=Rock Island Line
TTITLE1=I Love You Because
TTITLE2=Blue Train
TTITLE3=I Can't Help It
TTITLE4=Down The Street To 301
TTITLE5=I Heard That Lonesome Whistle
TTITLE6=The Wreck Of The 97
TTITLE7=Hey Good Lookin'
TTITLE8=Goodbye Little Darling
TTITLE9=Port of Lonely Hearts
TTITLE10=I Could Never Be Ashamed Of You
EXTD=YEAR: 1971
EXTT0=
EXTT1=
EXTT2=
EXTT3=
EXTT4=
EXTT5=
EXTT6=
EXTT7=
EXTT8=
EXTT9=
EXTT10=
PLAYORDER=
